<svg xmlns="http://www.w3.org/2000/svg" viewBox="0 0 168 46.5">

    <title>That's Nice LLC</title>
    <g id="Layer_2" data-name="Layer 2">
        <g id="Layer_1-2" data-name="Layer 1">
            <path fill="#8e837c"
                d="M70.4,43.7h1.1c.2-.8.4-1.5.6-2.3H76c.2.8.4,1.5.6,2.3h1.1c-.9-3.1-1.8-6.1-2.9-9.2H73.3c-1,3.1-2,6.1-2.9,9.2m2-3.2c.5-1.7,1.1-3.4,1.7-5.1h.1c.6,1.7,1.1,3.3,1.7,5.1Zm9.4,3.1a10.32,10.32,0,0,0,2.6.3c2.1,0,3.3-.9,3.3-2.7s-1.3-2.2-2.5-2.6-2.3-.6-2.3-1.8.9-1.4,2.1-1.4a7.32,7.32,0,0,1,2.2.3l.2-.9a9.28,9.28,0,0,0-2.4-.3c-1.9,0-3.1.8-3.1,2.5,0,1.5,1,2.1,2.6,2.5s2.3.7,2.3,1.9-.9,1.7-2.3,1.7a8.75,8.75,0,0,1-2.4-.3Zm7.1-3.2c0,2.2.9,3.4,2.8,3.4a5.56,5.56,0,0,0,2.3-.5l-.3-.8a4.33,4.33,0,0,1-1.9.4c-1.6,0-1.9-1.2-1.9-2.5,0-1.8.6-2.6,2-2.6a7.77,7.77,0,0,1,1.6.2l.1-.8a11,11,0,0,0-1.8-.2c-2.2,0-2.9,1.4-2.9,3.4m6.5-4.6h1V34.5h-1Zm0,7.9h1V37.1h-1Zm2.8-3.2c0,2.3,1.1,3.4,2.9,3.4a4.53,4.53,0,0,0,2.3-.6l-.3-.8a4.14,4.14,0,0,1-1.9.5c-1.4,0-1.9-.9-2-2.2h4.2c0-.3.1-.5.1-.8,0-1.7-.8-3-2.5-3-1.9,0-2.8,1.4-2.8,3.5m1-.5c.1-1.2.6-2.1,1.7-2.1s1.5,1,1.5,2.1Zm5.9,3.7h1V38.4a3.88,3.88,0,0,1,1.9-.6c.8,0,1.3.4,1.3,1.4v4.5h1V39.1a2,2,0,0,0-2.1-2.2,4.23,4.23,0,0,0-2.3.8l-.1-.7H105v6.7Zm6.9-3.3c0,2.2.9,3.4,2.8,3.4a5.56,5.56,0,0,0,2.3-.5l-.3-.8a4.33,4.33,0,0,1-1.9.4c-1.6,0-1.9-1.2-1.9-2.5,0-1.8.6-2.6,2-2.6a7.77,7.77,0,0,1,1.6.2l.1-.8a11,11,0,0,0-1.8-.2c-2.1,0-2.9,1.4-2.9,3.4m6.1.1c0,2.3,1.1,3.4,2.9,3.4a4.53,4.53,0,0,0,2.3-.6l-.3-.8a4.14,4.14,0,0,1-1.9.5c-1.4,0-1.9-.9-2-2.2h4.2c0-.3.1-.5.1-.8,0-1.7-.8-3-2.5-3-1.9,0-2.8,1.4-2.8,3.5m1-.5c.1-1.2.6-2.1,1.7-2.1s1.5,1,1.5,2.1Zm8.4,3.7h1.1c.2-.8.4-1.5.6-2.3h3.9c.2.8.4,1.5.6,2.3h1.1c-.9-3.1-1.8-6.1-2.9-9.2h-1.5c-1.1,3.1-2.1,6.1-2.9,9.2m2-3.2c.5-1.7,1.1-3.4,1.7-5.1h.1c.6,1.7,1.1,3.3,1.7,5.1Zm7.1,4.8-.1.9a13,13,0,0,0,2.2.3c1.5,0,2.5-.6,2.5-2v-7a10.13,10.13,0,0,0-2.6-.4c-2,0-2.7,1.1-2.7,3.4s.8,3.5,2.5,3.5a2.79,2.79,0,0,0,1.8-.6v1c0,1.1-.7,1.3-1.6,1.3a11.8,11.8,0,0,1-2-.4m1.9-2.3c-1.3,0-1.7-.8-1.7-2.6s.4-2.6,1.8-2.6a8.87,8.87,0,0,1,1.5.2v4.6a4.71,4.71,0,0,1-1.6.4m4.3-2.5c0,2.3,1.1,3.4,2.9,3.4a4.53,4.53,0,0,0,2.3-.6l-.3-.8a4.14,4.14,0,0,1-1.9.5c-1.4,0-1.9-.9-2-2.2H148c0-.3.1-.5.1-.8,0-1.7-.8-3-2.5-3-1.9,0-2.8,1.4-2.8,3.5m1-.5c.1-1.2.6-2.1,1.7-2.1s1.5,1,1.5,2.1Zm5.9,3.7h1V38.4a3.88,3.88,0,0,1,1.9-.6c.8,0,1.3.4,1.3,1.4v4.5h1V39.1a2,2,0,0,0-2.1-2.2,4.23,4.23,0,0,0-2.3.8l-.1-.7h-.8v6.7Zm6.9-3.3c0,2.2.9,3.4,2.8,3.4a5.56,5.56,0,0,0,2.3-.5l-.3-.8a4.33,4.33,0,0,1-1.9.4c-1.6,0-1.9-1.2-1.9-2.5,0-1.8.6-2.6,2-2.6a7.77,7.77,0,0,1,1.6.2l.1-.8a11,11,0,0,0-1.8-.2c-2.1,0-2.9,1.4-2.9,3.4m8,3.3h.5c-.3.8-.6,1.7-1,2.6h1a75.44,75.44,0,0,0,2.9-9.2h-1a55,55,0,0,1-1.6,5.8h-.1c-.7-1.8-1.2-3.8-1.8-5.8h-1.1c.8,2.5,1.5,4.9,2.2,6.6" />
            <path fill="#f2672c"
                d="M4.5,11.2v9.2c0,1.7.5,2.8,2.4,2.8a6,6,0,0,0,2.8-1.3c.7.3-.1.9-.4,1.2a5.32,5.32,0,0,1-3.9,1.8c-2.5,0-3.6-1.9-3.6-4.2V11.2H0v-.3A44.66,44.66,0,0,0,4.4,6.6h.1V9.4H9.6l-.8,1.8Z" />
            <path fill="#f2672c"
                d="M9.9,24.5v-.7c1.6-.1,2-.1,2-1.9V4.9c0-1.1-.9-1.4-1.8-1.6V3l4.5-1.8V11.5c1.5-1.4,2.8-2.5,5-2.5a4.36,4.36,0,0,1,3.9,2.1,7,7,0,0,1,.9,3.7v7c0,1.8.5,1.8,2,1.9v.7H19.8v-.7c1.4-.1,1.9-.1,1.9-1.9v-7a5.2,5.2,0,0,0-.5-2.7,3.08,3.08,0,0,0-2.8-1.8c-1.9.1-3,1.6-3.7,2.4v9c0,1.8.5,1.8,1.9,1.9v.7H9.9Z" />
            <path fill="#f2672c"
                d="M43.6,11.2v9.2c0,1.7.5,2.8,2.4,2.8a6,6,0,0,0,2.8-1.3c.7.3-.1.9-.4,1.2a5.32,5.32,0,0,1-3.9,1.8c-2.5,0-3.6-1.9-3.6-4.2V11.2H39.1v-.3a44.66,44.66,0,0,0,4.4-4.3h.1V9.4h5.2l-.9,1.8Z" />
            <path fill="#f2672c"
                d="M85.7,24.5v-.7c1.6-.1,1.6-.1,1.6-1.9V13.5c0-.7,0-1.7-.6-2.1a5,5,0,0,0-1.3-.4v-.3c1.5-.6,3.1-1.3,4.6-1.8V22c0,1.8.4,1.8,1.9,1.9v.7H85.7Z" />
            <path fill="#f2672c"
                d="M105.8,19.9c-1.2,3-3,5-6.5,5-4.6,0-7-4-7-8.2a7.58,7.58,0,0,1,7.5-7.6c2,0,5.7,1.2,5.7,3.6a1.24,1.24,0,0,1-1.3,1.4c-2.4,0-.5-4.4-4.4-4.4-3.5,0-4.5,3.9-4.5,6.7,0,3.2,1.6,6.7,5.2,6.7a5.37,5.37,0,0,0,4.7-3.3Z" />
            <path fill="#f2672c"
                d="M109.2,14.3a13.55,13.55,0,0,0-.2,2,6,6,0,0,0,6.2,6.3,5.8,5.8,0,0,0,5.3-3.5l.6.2c-1.1,3.3-3.5,5.6-7.1,5.6-4.7,0-7.6-3.2-7.6-7.9a7.64,7.64,0,0,1,7.5-7.9c3.5,0,6.2,1.7,7,5.2Zm7.5-.8c-.1-2-.9-3.7-3.2-3.7s-3.4,1.8-4,3.7Z" />
            <path fill="#f2672c"
                d="M83.2,21.9V13.6C83.2,11,80.6,9,78.1,9c-2.2,0-3.7,1.2-5.1,2.6C74.9,3.2,69.7,0,65.3,0,60,0,56.9,3.9,56.9,7.8A5.76,5.76,0,0,0,57,9.3L55.8,9a2.79,2.79,0,0,0-1-.1h-.6C52,9.1,50,10.4,50,12.8s1.7,3.3,3.7,4.4c1.6.9,3.7,1.6,3.7,3.7s-1,3.1-3,3.1c-2.7,0-3.3-2.5-4-4.6H50v4.1a8.83,8.83,0,0,0,4.5,1.1c2.9,0,5.6-1.5,5.6-4.7,0-5.1-7.8-5-7.8-8a2.36,2.36,0,0,1,2.2-2.5c3.7-.1,2.1,4.2,4.5,4.1A1.24,1.24,0,0,0,60.2,12a2.57,2.57,0,0,0-.7-1.6A5.62,5.62,0,0,1,59,7.6C58.9,4.5,61.5.3,65.5.5s5.4,3.3,5.9,5.1a5.84,5.84,0,0,1-.4,4,6.7,6.7,0,0,1-1.8.7v.4c1.2.4,1.7.9,1.7,2.2v8.7c0,1.8-.2,1.8-1.7,1.9v.7h6.5v-.7c-1.5-.1-2-.1-2-1.9V13.3c0-1.6,2.1-3.1,3.6-3.1,2.3,0,3.5,1.5,3.5,3.7v7.7c0,1.8-.5,1.8-2,1.9v.7h6.4v-.7c-1.6.3-2,.3-2-1.6" />
            <path fill="#f2672c"
                d="M34.8,11.9c0-1.4-.9-1.8-2.2-1.8s-3.1.8-3.1,1.7v.8c0,1.3-.3,2.3-1.8,2.3-.6,0-.9-.6-.9-1.2a2.76,2.76,0,0,1,1.1-2.1A10.81,10.81,0,0,1,34,9.2a3.08,3.08,0,0,1,3.3,3.4V22c0,.6,0,1.6.8,1.6.6,0,.9-.7,1-1.2h.6c-.2,1.7-.9,2.6-2.5,2.7-.8,0-2.3-.6-2.3-1.8a7.31,7.31,0,0,1-5,1.8,3.1,3.1,0,0,1-3.1-3c0-3.8,5.2-5,8-6.2Zm0,4.7c-1.6.7-5.6,1.7-5.6,3.8A2.5,2.5,0,0,0,31.7,23a4.68,4.68,0,0,0,3.1-1.4Z" />
        </g>
    </g>
</svg>